<svg xmlns="http://www.w3.org/2000/svg" xmlns:xlink="http://www.w3.org/1999/xlink" width="227.377" height="53.406" viewBox="0 0 227.377 53.406"><defs><clipPath id="clip-path"><rect id="Rechteck_17338" data-name="Rechteck 17338" width="120.492" height="53.406" fill="none"></rect></clipPath><clipPath id="clip-path-2"><rect id="Rechteck_17339" data-name="Rechteck 17339" width="85.743" height="49.152" fill="none"></rect></clipPath></defs><g id="Gruppe_20821" data-name="Gruppe 20821" transform="translate(-55 -23.481)"><g id="Bildmaterial_3" data-name="Bildmaterial 3" transform="translate(115.246 50.183)"><g id="Gruppe_20690" data-name="Gruppe 20690" transform="translate(-60.246 -26.703)" clip-path="url(#clip-path)"><path id="Pfad_29113" data-name="Pfad 29113" d="M64.1,29.66c-1.565,0-2.012-.894-2.012-3.353V22.73h0V16.024H55.379v1.118h1.341c1.341,0,1.788.447,1.788,2.235v4.471a7.824,7.824,0,0,1-.894,1.565,8.942,8.942,0,0,1-7.6,4.471,4.247,4.247,0,0,1-4.247-2.235,9.836,9.836,0,0,1-.671-4.024,5.142,5.142,0,0,0,3.8,1.341c3.13,0,5.365-1.788,5.365-4.471S51.8,15.8,48.226,15.8s-6.706,2.683-6.706,7.6a7.154,7.154,0,0,0,7.824,7.824,10.283,10.283,0,0,0,5.142-1.341,13.189,13.189,0,0,0,4.024-3.8h0v.894A3.8,3.8,0,0,0,62.98,31a6.259,6.259,0,0,0,5.812-4.471l-.894-.447c-.894,2.235-2.235,3.353-3.8,3.353M48,16.471c1.565,0,2.683,1.341,2.683,3.353h0c0,2.235-1.118,3.353-2.683,3.353a2.459,2.459,0,0,1-2.683-2.459c0-2.459.894-4.024,2.683-4.024" transform="translate(51.253 19.521)" fill="#fff"></path><path id="Pfad_29114" data-name="Pfad 29114" d="M8.63,6.353v7.824a4.024,4.024,0,0,0,.894,2.235,4.918,4.918,0,0,0,3.8,1.565A5.365,5.365,0,0,0,17.8,15.966a4.247,4.247,0,0,0,4.024,2.012A6.706,6.706,0,0,0,25.4,16.86l-.447.894H37.02V11.495h-.894c-.447,3.13-2.235,5.142-4.918,5.142H29.643v-.447l.447-.894.447-.671.447-.894,4.024-7.377,1.118-2.012.671-.894V3H25.4V8.589h.894a6.259,6.259,0,0,1,1.341-3.13,3.577,3.577,0,0,1,3.13-1.565h1.565l-4.918,8.942h0a6.036,6.036,0,0,1-4.471,3.577c-1.341,0-2.012-1.118-2.012-3.13V3H17.348v9.613c0,2.683-.894,3.8-2.683,3.8s-2.459-1.341-2.459-4.024V3H5.5V4.118H7.065c1.341,0,1.788.447,1.788,2.235" transform="translate(6.795 3.706)" fill="#fff"></path><path id="Pfad_29115" data-name="Pfad 29115" d="M28.143,18.228a10.507,10.507,0,0,0,5.142-1.341,13.189,13.189,0,0,0,4.024-3.8V18h3.577V8.168c0-2.235,1.118-3.577,2.906-3.577s1.118.224,1.118.671v.224A2.235,2.235,0,0,0,44.686,6.6,2.012,2.012,0,0,0,46.7,8.615a2.235,2.235,0,0,0,2.235-2.459c0-2.012-1.565-3.353-3.8-3.353a4.918,4.918,0,0,0-4.024,1.788V3.25H34.4V4.368h1.341c1.341,0,1.788.447,1.788,2.235v4.471a7.824,7.824,0,0,1-.894,1.565,8.942,8.942,0,0,1-7.6,4.471,4.247,4.247,0,0,1-4.247-2.235,9.836,9.836,0,0,1-.671-4.024,5.142,5.142,0,0,0,3.8,1.341c3.13,0,5.142-1.788,5.142-4.471S30.826,2.8,27.026,2.8s-6.706,2.683-6.706,7.6a7.154,7.154,0,0,0,7.824,7.824M26.8,3.921c1.565,0,2.683,1.341,2.683,3.353h0c0,2.235-1.118,3.353-2.683,3.353A2.459,2.459,0,0,1,24.12,7.944c0-2.459.894-4.024,2.683-4.024" transform="translate(25.061 3.456)" fill="#fff"></path><path id="Pfad_29116" data-name="Pfad 29116" d="M48.8,14.635A2.235,2.235,0,1,0,51.035,12.4,2.235,2.235,0,0,0,48.8,14.635" transform="translate(60.291 15.32)" fill="#fff"></path><path id="Pfad_29117" data-name="Pfad 29117" d="M36.23,6.6V18h3.353V7.944c0-2.235,1.118-3.577,2.906-3.577S44.5,5.262,44.5,7.274V13.98c0,2.906,1.341,4.471,4.247,4.471a5.589,5.589,0,0,0,4.471-2.012,7.824,7.824,0,0,0,6.036,2.235A10.507,10.507,0,0,0,64.4,17.333a13.189,13.189,0,0,0,4.024-3.8V18H72V8.168c0-2.235,1.118-3.577,2.906-3.577s1.118.224,1.118.671v.224A2.236,2.236,0,0,0,75.8,6.6,2.012,2.012,0,0,0,77.81,8.615a2.235,2.235,0,0,0,2.235-2.459c0-2.012-1.565-3.353-3.8-3.353a4.918,4.918,0,0,0-4.024,1.788V3.25H65.514V4.368h.894c1.341,0,1.788.447,1.788,2.235v4.471a7.824,7.824,0,0,1-.894,1.565,8.942,8.942,0,0,1-7.6,4.471,4.247,4.247,0,0,1-4.247-2.235,9.836,9.836,0,0,1-.671-4.024,5.142,5.142,0,0,0,3.8,1.341c3.353,0,5.589-1.788,5.589-4.471s-2.459-4.695-6.036-4.695-6.706,2.683-6.706,7.6a8.718,8.718,0,0,0,1.341,4.694,3.8,3.8,0,0,1-2.683,1.565c-1.341,0-2.012-.894-2.012-2.906V7.5A4.024,4.024,0,0,0,46.96,4.144a4.471,4.471,0,0,0-3.353-1.118,5.142,5.142,0,0,0-4.024,1.788V3.25H33.1V4.368h1.341c1.341,0,1.788.447,1.788,2.235M57.69,4.144c1.565,0,2.683,1.341,2.683,3.353h0c0,2.235-1.118,3.353-2.683,3.353a2.459,2.459,0,0,1-2.683-2.906c0-2.459.894-4.024,2.683-4.024" transform="translate(40.894 3.456)" fill="#fff"></path><path id="Pfad_29118" data-name="Pfad 29118" d="M74.665,24.3a10.06,10.06,0,0,0-7.154.447,13.413,13.413,0,0,0-6.259,6.706,4.694,4.694,0,0,0-.224,1.118l-1.788.671c-1.565,0-2.459-1.118-2.459-3.577V20.724H59.24V19.606H57V12.9l-3.577,2.235v4.471H51.192v1.118h2.235V29.89a9.165,9.165,0,0,0,0,1.341,4.247,4.247,0,0,1-2.906,2.012c-1.341,0-2.012-.894-2.012-2.906V23.854A4.024,4.024,0,0,0,47.392,20.5a4.471,4.471,0,0,0-3.353-1.118,5.142,5.142,0,0,0-4.024,1.788V19.606H33.756v1.118H35.1c1.341,0,1.788.447,1.788,2.235v6.93c-1.118,2.012-2.459,3.13-3.8,3.13s-2.012-.894-2.012-2.906V19.606H27.5V20.5a4.247,4.247,0,0,0-3.13-1.341c-3.577,0-6.036,3.13-6.036,7.6a9.613,9.613,0,0,0,1.118,4.471,3.8,3.8,0,0,1-3.13,2.012c-1.341,0-2.012-1.118-2.012-2.683V29.219c0-2.459-1.565-3.8-4.247-3.8H9.389a7.154,7.154,0,0,0,1.341-2.235v-.671c.447-1.118.671-1.341,1.118-1.341a.447.447,0,0,1,.447.447h0a1.788,1.788,0,0,0,1.788,1.788A2.012,2.012,0,0,0,16.1,21.171a2.683,2.683,0,0,0-2.906-2.459c-1.788,0-2.683.894-4.024,3.353s-.894,3.577-2.459,4.247V12.9H0v1.118H1.565c1.341,0,1.788.671,1.788,2.235V34.361H6.706V29.89c0-2.012.894-3.353,2.459-3.353s1.788.671,1.788,2.235v2.459c0,2.235,1.788,3.353,4.471,3.353a5.812,5.812,0,0,0,4.695-2.459,5.142,5.142,0,0,0,4.247,2.235,4.471,4.471,0,0,0,3.577-1.788,4.694,4.694,0,0,0,4.024,1.788,6.036,6.036,0,0,0,4.918-2.906v2.683h3.353V24.3c0-2.235,1.118-3.577,2.906-3.577s2.012.894,2.012,2.906v6.706c0,2.906,1.341,4.471,4.247,4.471a5.589,5.589,0,0,0,4.471-2.235l.447.671A4.7,4.7,0,0,0,57.9,34.584a6.259,6.259,0,0,0,3.353-.894,4.471,4.471,0,0,0,3.13,3.13,10.06,10.06,0,0,0,7.154-.447,13.86,13.86,0,0,0,6.483-6.706A4.247,4.247,0,0,0,74.665,24.3M27.5,29.89c0,1.788-.894,3.13-2.459,3.13s-2.906-2.235-2.906-6.483,1.118-6.036,3.13-6.036,2.459,1.341,2.459,3.353Zm47.839-2.235V28.1a28.613,28.613,0,0,1-3.8,5.142C69.3,35.7,67.064,36.6,65.276,35.925s-1.341-1.341-.894-2.683L65.5,31.007l2.906-3.577c2.235-2.459,4.024-3.353,6.036-2.683a1.788,1.788,0,0,1,1.341,2.683" transform="translate(0 15.938)" fill="#fff"></path><path id="Pfad_29119" data-name="Pfad 29119" d="M1.565,1.118c1.341,0,1.788.671,1.788,2.235V16.766a4.694,4.694,0,0,0,.894,3.353,4.918,4.918,0,0,0,3.8,1.565c2.683,0,4.471-1.565,5.812-4.694l-1.118-.447C11.848,19,10.73,20.119,9.165,20.119S6.93,19,6.93,15.872V0H0V1.118Z" fill="#fff"></path><path id="Pfad_29120" data-name="Pfad 29120" d="M45.33,15.8a4.918,4.918,0,0,0-4.024,1.788V16.026H34.6v1.118h1.341c1.341,0,1.788.447,1.788,2.235v11.4h3.577V20.944c0-2.012,1.118-3.577,2.906-3.577s1.118.224,1.118.671v.447a2.236,2.236,0,0,0-.224,1.118,2.012,2.012,0,0,0,2.012,2.012,2.235,2.235,0,0,0,2.235-2.459c0-2.012-1.565-3.353-3.8-3.353" transform="translate(42.747 19.518)" fill="#fff"></path></g></g><g id="Bildmaterial_4" data-name="Bildmaterial 4" transform="translate(239.505 51.203)"><g id="Gruppe_20691" data-name="Gruppe 20691" transform="translate(-42.872 -24.576)" clip-path="url(#clip-path-2)"><path id="Pfad_29121" data-name="Pfad 29121" d="M.4,0h.75V6.109H5.116v.75H.4ZM11.654,3.966a2.679,2.679,0,0,1-2.787,3,2.679,2.679,0,0,1-2.894-3V0h.75V3.966c0,1.5.75,2.358,2.144,2.358S10.9,5.573,10.9,4.073V0h.75ZM12.94.75V0H18.3V.536l-4.5,5.68h4.5v.75H12.726V6.324L17.227.75Zm11.9,0h-4.18V3h3.751v.75H20.657V6.216h4.287v.75H19.8V0h4.93Zm6.431,6.216L29.338,4.18H27.3V6.859h-.75V0h3c1.5,0,2.465.857,2.465,2.036A2.036,2.036,0,0,1,30.2,4.073l2.144,2.787ZM29.445.75H27.3V3.537h2.144c1.072,0,1.715-.536,1.715-1.393S30.624.75,29.445.75M38.877,0h.75V6.859h-.643L34.59,1.286V6.859h-.75V0h.75l4.287,5.466Zm7.61.75h-4.18V3h3.751v.75H42.307V6.216h4.287v.75H41.557V0h4.93ZM52.81,6.967,50.774,4.18H48.845V6.859h-.75V0h3c1.5,0,2.465.857,2.465,2.036a2.036,2.036,0,0,1-1.822,2.036l2.144,2.787ZM50.988.75H48.845V3.537h2.144C52.06,3.537,52.7,3,52.7,2.144S52.06.75,50.988.75M3.723,17.256h0L1.15,13.612v5.573H.4V12.326h.75l2.572,3.751,2.465-3.751h.75v6.859h-.75V13.612ZM15.3,19.185H14.44l-.857-1.822H9.939l-.857,1.822h-.75l3.108-6.967h.75Zm-3.537-6-1.5,3.43h3.108Zm-1.286-2.465h.857v.965h-.857Zm1.715,0h.857v.965H12.19Zm6.752,8.467H16.584V12.326h2.358a3.43,3.43,0,1,1,0,6.859m0-6.109H17.334v5.466h1.608a2.733,2.733,0,1,0,0-5.466m8.467,6.216a3.43,3.43,0,0,1-3.43-3.537,3.43,3.43,0,0,1,3.43-3.537,3.537,3.537,0,0,1,2.679,1.072l-.536.536a3,3,0,0,0-2.144-.965,2.679,2.679,0,0,0-2.679,2.787,2.679,2.679,0,0,0,2.679,2.894,3,3,0,0,0,2.251-.965l.536.536a3.537,3.537,0,0,1-2.787,1.179m4.823-3.215v3.108h-.75V12.326h.75v3H36.2v-3h.75v6.859H36.2V16.077Zm11.575-3.108h-4.18v2.358h3.751v.75H39.627v2.358h4.287v.75H38.877V12.326h4.93Zm6.645-.75h.75v6.859H50.56L46.165,13.4v5.68h-.75V12.326h.75l4.287,5.466Zm5.573,7.074a3.43,3.43,0,0,1-3.43-3.537,3.43,3.43,0,0,1,3.43-3.537,3.537,3.537,0,0,1,2.679,1.072l-.536.536a3,3,0,0,0-2.144-.965,2.679,2.679,0,0,0-2.679,2.787,2.679,2.679,0,0,0,2.679,2.894,3,3,0,0,0,2.251-.965l.536.536a3.537,3.537,0,0,1-2.787,1.179m4.823-3.215v3.108H60.1V12.326h.75v3h3.966v-3h.75v6.859h-.75V16.077Zm9.432,3.215a3.43,3.43,0,0,1-3.537-3.537,3.537,3.537,0,1,1,3.644,3.537m0-6.431a2.679,2.679,0,0,0-2.679,2.787,2.787,2.787,0,0,0,2.679,2.894,2.679,2.679,0,0,0,2.679-2.787,2.787,2.787,0,0,0-2.679-2.894m9.432,6.324-2.036-2.679H75.854v2.679H75.1V12.326h3c1.5,0,2.465.857,2.465,2.036A2.036,2.036,0,0,1,78.748,16.4l2.144,2.787ZM78,13.076H75.854v2.787H78c1.072,0,1.715-.536,1.715-1.393S79.069,13.076,78,13.076" transform="translate(0.029)" fill="#fff"></path><path id="Pfad_29122" data-name="Pfad 29122" d="M.429,27.9h.75v6.109H5.145v.75H.429Zm11.254,3.966a2.679,2.679,0,0,1-2.894,3,2.679,2.679,0,0,1-2.894-3V27.9h.75v3.966c0,1.5.75,2.358,2.144,2.358s2.036-.75,2.036-2.251V27.9h.75Zm1.286-3.215v-.643h5.359v.536l-4.5,5.68h4.5v.643H12.754v-.536l4.394-5.68Zm11.9,0h-4.18v2.358h3.751v.75H20.686v2.358h4.287v.75H19.828V27.9h4.93ZM31.3,34.867,29.26,32.187H27.331v2.679h-.75V27.9h3c1.5,0,2.465.857,2.465,2.036a2.036,2.036,0,0,1-1.822,2.036l2.144,2.787Zm-1.822-6.109H27.331v2.787h2.144c1.072,0,1.715-.536,1.715-1.393s-.643-1.393-1.715-1.393m9.432-.75h.75v6.859h-.643l-4.394-5.68v5.68h-.75V27.9h.75l4.287,5.466Zm7.61.75h-4.18v2.358h3.751v.75H42.336v2.358h4.287v.75H41.585V27.9h4.93Zm6.324,6.216L50.8,32.294H48.874v2.679h-.75V27.9h3c1.5,0,2.465.857,2.465,2.036a2.036,2.036,0,0,1-1.822,2.036l2.144,2.787Zm-1.822-6.109H48.874v2.787h2.144c1.072,0,1.715-.536,1.715-1.393s-.643-1.393-1.715-1.393M2.894,43.227c1.5.322,2.251.857,2.251,1.929a2.116,2.116,0,0,1-2.358,1.929A4.073,4.073,0,0,1,0,46.013l.429-.536a3.323,3.323,0,0,0,2.358.965c.965,0,1.5-.429,1.5-1.179s-.322-.965-1.822-1.286S.322,43.119.322,41.94a2.036,2.036,0,0,1,2.251-1.929,3.537,3.537,0,0,1,2.465.857l-.429.643a3,3,0,0,0-2.036-.75c-.857,0-1.5.536-1.5,1.072s.322,1.072,1.822,1.393m9.968,3.858H12l-.857-1.822H7.5l-.857,1.822h-.75L9,40.118h.75Zm-3.43-6.109L7.824,44.513h3.108ZM8.038,38.618H8.9v.965H8.038Zm1.715,0h.965v.965H9.86Zm9.539,1.5h.75v6.859H19.4L15.005,41.4v5.68h-.75V40.118h.75l4.287,5.466Zm5.895,6.967a3.323,3.323,0,0,1-3.537-3.537,3.43,3.43,0,0,1,3.43-3.537,3.644,3.644,0,0,1,2.572.965l-.536.643a2.894,2.894,0,0,0-2.144-.75,2.843,2.843,0,0,0,.107,5.68,3.215,3.215,0,0,0,2.036-.643V44.084H24.973v-.75h2.894V46.12a4.18,4.18,0,0,1-2.787,1.072m9.646-6.324h-4.18v2.358H34.3v.75H30.546v2.358h4.287v.75H29.8V40.118h4.93Zm6.431,6.216L39.12,44.406H37.191v2.679h-.75V40.118h3c1.5,0,2.465.857,2.465,2.036a2.036,2.036,0,0,1-1.822,2.036l2.144,2.787Zm-1.822-6.216H37.191v2.787h2.144c1.072,0,1.715-.536,1.715-1.393s-.536-1.393-1.715-1.393m10.182,6.109h-.965l-2.679-3.323-1.393,1.5v1.822h-.75V40.118h.75v4.073l3.966-4.073h.965l-2.894,3Zm6.431-6.859h.75v6.859h-.643L51.66,41.3v5.68h-.75V40.118h.75l4.287,5.466Zm9,6.859h-.857l-.857-1.822H59.591l-.857,1.822h-.75l3.108-6.967h.75Zm-3.537-6-1.608,3.537h3.108Zm9.968.857a1.715,1.715,0,0,1-1.072,1.608,1.715,1.715,0,0,1,1.608,1.715c0,1.179-.965,1.929-2.465,1.929H66.344V40.118h2.894c1.393,0,2.251.643,2.251,1.715m-.75.107c0-.643-.536-1.179-1.5-1.179H67.094v2.358H69.13c.965,0,1.608-.429,1.608-1.286m.429,3.108c0-.75-.643-1.179-1.822-1.179H67.2v2.465h2.358c1.072,0,1.715-.429,1.715-1.286m7.074-4.073h-4.18v2.358h3.751v.75H74.168v2.358h4.287v.75H73.417V40.118h4.93Zm6.645-.75h.75v6.859H85.1L80.706,41.3v5.68h-.75V40.118h.75l4.287,5.466Z" transform="translate(0 2.003)" fill="#fff"></path></g></g></g></svg>